<svg width="202" height="228" viewBox="0 0 202 228" fill="none" xmlns="http://www.w3.org/2000/svg">
<path d="M195.605 55.3694C190.863 49.295 184.818 44.3813 177.925 40.9962L124.169 9.36741C116.834 5.04406 109.122 0.606934 100.545 0.606934C91.9687 0.606934 84.2947 5.00614 76.9969 9.29156L24.9718 39.6309C16.8088 44.5231 8.232 49.7187 3.79313 58.1379C0.0313718 65.4572 0.0313721 74.1798 0.0313721 82.4852C0.0313721 103.419 0.0313721 124.341 0.0313721 145.25C0.0313721 154.655 0.0313716 164.629 5.22259 172.517C9.836 178.598 15.7848 183.518 22.6019 186.89L75.5674 218.405C82.6395 222.577 90.0126 226.862 98.1379 227.393C108.332 228.038 117.85 222.691 126.727 217.533L172.997 190.531C183.605 184.312 194.966 177.22 199.329 165.653C201.003 159.587 201.614 153.272 201.135 146.994C201.135 126.06 201.135 105.126 201.135 84.1918C201.135 74.2556 201.135 63.6748 195.605 55.3694ZM56.4201 132.924H36.069V149.118H55.2163V151.886H36.069V170.28H56.3448V173.01H33.0972V130.156H56.3448L56.4201 132.924ZM84.5204 173.01L74.5517 158.789L64.5455 173.01H61.3856L72.8589 156.627L61.9499 141.154H65.2602L74.6646 154.579L84.0314 141.154H87.1912L76.2069 156.627L87.8307 173.01H84.5204ZM108.671 173.01C107.117 173.521 105.49 173.765 103.856 173.731C102.725 173.827 101.587 173.674 100.522 173.281C99.4559 172.888 98.4883 172.265 97.6865 171.455C96.1876 169.375 95.5165 166.804 95.8057 164.25V143.657H90.953V141.988L95.8057 140.661L97.2351 133.455H98.7398V141.04H107.843V143.543H98.5894V163.832C98.44 165.731 98.8875 167.628 99.8684 169.256C100.342 169.863 100.957 170.344 101.66 170.655C102.362 170.966 103.129 171.097 103.893 171.038C105.483 171.105 107.074 170.977 108.633 170.659L108.671 173.01ZM134.702 173.01C134.702 180.254 131.354 183.856 124.734 183.856C123.227 183.906 121.728 183.634 120.332 183.06V180.481C121.759 180.847 123.224 181.038 124.696 181.05C129.361 181.05 131.73 178.471 131.73 173.465V130.156H134.702V173.01ZM136.922 92.4592C135.303 98.5023 132.237 104.052 127.993 108.621C123.75 113.191 118.458 116.64 112.583 118.665C114.323 117.448 115.799 115.884 116.918 114.071C118.037 112.258 118.776 110.234 119.091 108.122C119.369 106.007 119.201 103.856 118.598 101.811C117.995 99.7651 116.971 97.8709 115.592 96.2516C113.596 94.108 111.24 92.3363 108.633 91.0181C97.7994 85.064 85.3104 81.3475 76.9216 72.056C72.9044 67.5794 70.0739 62.1522 68.6929 56.2781C67.3119 50.404 67.4251 44.2734 69.022 38.4552C70.7054 32.6627 73.7178 27.351 77.8153 22.95C81.9128 18.5489 86.9805 15.1821 92.6082 13.1219C90.9306 14.3693 89.5285 15.9544 88.4906 17.7768C87.4527 19.5993 86.8017 21.6192 86.5789 23.7086C86.356 25.798 86.5663 27.9113 87.1962 29.9145C87.8261 31.9177 88.8621 33.7671 90.2383 35.3455C92.3179 37.5722 94.7933 39.3859 97.5361 40.6928C107.693 46.1538 119.279 49.6049 127.63 57.7207C132.024 62.2075 135.187 67.7679 136.81 73.8574C138.432 79.9469 138.457 86.3567 136.884 92.4592H136.922ZM163.781 170.659C160.768 172.881 157.089 173.992 153.361 173.807C149.312 173.996 145.264 173.404 141.436 172.062V169.066C145.165 170.507 149.143 171.178 153.135 171.038C156.099 171.209 159.033 170.352 161.448 168.611C162.433 167.886 163.228 166.931 163.766 165.828C164.303 164.725 164.566 163.506 164.533 162.278C164.646 160.801 164.29 159.327 163.517 158.068C162.666 156.837 161.53 155.835 160.207 155.148C158.067 153.966 155.81 153.013 153.473 152.304C150.151 151.371 147.079 149.699 144.483 147.411C143.615 146.458 142.945 145.34 142.512 144.122C142.08 142.904 141.893 141.611 141.962 140.32C141.93 138.804 142.254 137.303 142.908 135.939C143.562 134.574 144.527 133.385 145.724 132.469C148.466 130.348 151.864 129.273 155.317 129.435C159.193 129.409 163.034 130.184 166.602 131.711L165.511 134.29C162.318 132.876 158.879 132.115 155.392 132.052C152.71 131.907 150.058 132.683 147.868 134.252C146.946 134.957 146.207 135.878 145.715 136.935C145.224 137.992 144.995 139.153 145.047 140.32C145.018 141.636 145.316 142.94 145.912 144.112C146.597 145.257 147.571 146.199 148.734 146.842C150.863 148.039 153.106 149.017 155.429 149.763C158.064 150.575 160.591 151.708 162.953 153.138C164.517 154.046 165.814 155.354 166.715 156.93C167.539 158.464 167.942 160.193 167.881 161.936C167.955 163.617 167.62 165.291 166.905 166.811C166.19 168.331 165.118 169.652 163.781 170.659Z" fill="#99C356"/>
</svg>
